<?xml version="1.0" encoding="iso-8859-1"?>
<!-- Generator: Adobe Illustrator 21.0.0, SVG Export Plug-In . SVG Version: 6.00 Build 0)  -->
<svg xmlns="http://www.w3.org/2000/svg" xmlns:xlink="http://www.w3.org/1999/xlink" version="1.1" id="Capa_1" x="0px" y="0px" viewBox="0 0 510.746 510.746" style="enable-background:new 0 0 510.746 510.746;" xml:space="preserve" width="512" height="512">
<g>
	<g>
		<path style="fill:#FFCA28;" d="M174.646,240.479c-17.584,0-34.117-6.848-46.551-19.282L19.282,112.384    C6.848,99.95,0,83.418,0,65.833s6.848-34.117,19.282-46.551C31.716,6.848,48.249,0,65.833,0s34.117,6.848,46.551,19.282    l108.813,108.813c25.668,25.668,25.668,67.434,0,93.102C208.763,233.631,192.23,240.479,174.646,240.479z"/>
	</g>
	<g>
		<path style="fill:#EF5350;" d="M367.84,510.746c-11.065,0-21.984-2.901-31.823-8.583l-3.428-1.979    c-30.493-17.605-40.977-56.734-23.373-87.227l78.921-136.695c17.606-30.492,56.735-40.976,87.226-23.372l3.428,1.979    c14.771,8.528,25.337,22.297,29.751,38.772c4.414,16.475,2.149,33.683-6.379,48.454l-78.921,136.695    c-8.528,14.771-22.298,25.337-38.772,29.751C378.97,510.017,373.385,510.746,367.84,510.746z"/>
	</g>
	<path style="fill:#D32F2F;" d="M508.543,293.643c-4.415-16.475-14.98-30.245-29.751-38.772l-3.428-1.979   c-7.442-4.297-15.4-6.908-23.433-7.976c7.91,7.851,13.651,17.676,16.612,28.728c4.414,16.475,2.149,33.683-6.379,48.454   l-78.921,136.695c-8.528,14.771-22.298,25.337-38.772,29.751c-5.5,1.474-11.085,2.203-16.63,2.203   c-2.786,0-5.563-0.185-8.316-0.551c3.822,3.797,8.184,7.172,13.065,9.99l3.428,1.979c9.839,5.681,20.758,8.583,31.823,8.583   c5.545,0,11.13-0.729,16.63-2.203c16.475-4.415,30.244-14.98,38.772-29.751l78.921-136.695   C510.692,327.325,512.957,310.118,508.543,293.643z"/>
	<g>
		<path style="fill:#42A5F5;" d="M458.953,416.939l-114.026-65.833l43.21-74.843c8.528-14.771,22.298-25.337,38.772-29.751    c16.476-4.413,33.684-2.148,48.454,6.379l2.523,1.456c15.12,8.727,26.456,22.992,30.814,39.897    c4.2,16.292,1.887,33.26-6.538,47.851L458.953,416.939z"/>
	</g>
	<path style="fill:#1976D2;" d="M508.701,294.244c-4.358-16.905-15.695-31.169-30.814-39.897l-2.523-1.456   c-7.431-4.291-15.48-6.992-23.742-8.059c8.158,8.063,14.175,18.145,17.08,29.412c4.2,16.292,1.887,33.26-6.538,47.851   l-41.871,72.523l38.66,22.321l43.21-74.843C510.588,327.505,512.901,310.536,508.701,294.244z"/>
	<path style="fill:#FFA000;" d="M221.197,128.095c-22.642-22.642-88.042-88.042-108.813-108.813C99.95,6.848,83.417,0,65.833,0   c-6.891,0-13.615,1.066-20,3.094c9.907,3.146,18.989,8.627,26.551,16.188l53.942,53.941c5.991,5.991,5.991,15.703,0,21.694   l-62.255,62.255l19.236,19.236l62.255-62.255c5.991-5.991,15.703-5.991,21.694,0l13.942,13.942   c25.668,25.668,25.668,67.434,0,93.102c-7.561,7.562-16.644,13.043-26.551,16.189c6.385,2.027,13.109,3.094,20,3.094   c17.585,0,34.117-6.848,46.551-19.282C246.865,195.528,246.865,153.763,221.197,128.095z"/>
	<g>
		<path style="fill:#90CAF9;" d="M138.537,492.861c-58.889,0-106.798-47.909-106.798-106.797    c0-58.889,47.909-106.798,106.798-106.798c58.888,0,106.797,47.909,106.797,106.798    C245.334,444.952,197.425,492.861,138.537,492.861z"/>
	</g>
	<g>
		<path style="fill:#EF5350;" d="M355.302,213.286c-40.646,0-73.714-33.068-73.714-73.714c0-40.646,33.068-73.714,73.714-73.714    s73.714,33.068,73.714,73.714C429.017,180.218,395.948,213.286,355.302,213.286z"/>
	</g>
	<path style="fill:#D32F2F;" d="M366.621,66.728c13.798,13.404,22.396,32.134,22.396,52.844c0,40.646-33.068,73.714-73.714,73.714   c-3.848,0-7.628-0.299-11.318-0.87c13.282,12.902,31.383,20.87,51.318,20.87c40.646,0,73.714-33.068,73.714-73.714   C429.017,102.774,401.913,72.19,366.621,66.728z"/>
	<path style="fill:#42A5F5;" d="M165.099,282.61c12.533,10.016,22.769,22.791,29.78,37.395c3.306,6.886,0.809,15.155-5.806,18.975   L39.274,425.466c3.875,9.727,9.141,18.754,15.549,26.836l147.545-85.185c1.67-0.964,2.979-0.175,2.929,1.753   c-1.493,57.597-48.811,103.992-106.761,103.992c-9.167,0-18.067-1.162-26.562-3.344c18.863,15.076,42.923,23.907,69.023,23.316   c55.837-1.264,101.696-46.034,104.224-101.828C247.573,339.136,212.698,294.839,165.099,282.61z"/>
</g>















</svg>
