<?xml version="1.0" encoding="iso-8859-1"?>
<!-- Generator: Adobe Illustrator 19.0.0, SVG Export Plug-In . SVG Version: 6.00 Build 0)  -->
<svg version="1.1" id="Capa_1" xmlns="http://www.w3.org/2000/svg" xmlns:xlink="http://www.w3.org/1999/xlink" x="0px" y="0px"
	 viewBox="0 0 511.963 511.963" style="enable-background:new 0 0 511.963 511.963;" xml:space="preserve">
<path style="fill:#ACB3BA;" d="M505.6,214.431l-161.1-161.1c-8.5-8.5-21.3-8.5-29.9,0l-51.2,51.2v382.9l242.1-242.1
	C514.1,235.731,514.1,221.931,505.6,214.431z"/>
<g>
	<path style="fill:#54C0EB;" d="M296.5,343.531c-16-16-16-43.7,0-59.7s43.7-16,59.7,0s16,43.7,0,59.7
		C339.2,360.531,312.5,360.531,296.5,343.531z"/>
	<path style="fill:#54C0EB;" d="M273.1,366.931c-3.2-3.2-6.4-5.3-9.6-7.5v73.6c3.2-2.1,6.4-4.3,9.6-7.5
		C289.1,409.631,289.1,382.931,273.1,366.931z"/>
</g>
<path style="fill:#FFFFFF;" d="M365.9,231.531c0-23.5,19.2-42.7,42.7-42.7s42.7,19.2,42.7,42.7s-19.2,42.7-42.7,42.7
	C385.1,273.131,365.9,254.931,365.9,231.531z"/>
<path style="fill:#F2F2F2;" d="M366.9,226.131c0,1.1,0,3.2,0,4.3c0,1.1,0,3.2,0,4.3h83.2c0-1.1,0-3.2,0-4.3c0-1.1,0-3.2,0-4.3H366.9
	z"/>
<path style="fill:#FFFFFF;" d="M283.7,313.631c0-23.5,19.2-42.7,42.7-42.7s42.7,19.2,42.7,42.7s-19.2,42.7-42.7,42.7
	S283.7,337.131,283.7,313.631z"/>
<path style="fill:#F2F2F2;" d="M283.7,309.331c0,1.1,0,3.2,0,4.3s0,3.2,0,4.3h83.2c0-1.1,0-3.2,0-4.3s0-3.2,0-4.3H283.7z"/>
<g>
	<path style="fill:#FFFFFF;" d="M263.5,359.531v73.6c12.8-7.5,22.4-21.3,22.4-37.3C285.9,380.831,276.3,366.931,263.5,359.531z"/>
	<path style="fill:#FFFFFF;" d="M282.7,147.231c0-23.5,19.2-42.7,42.7-42.7s42.7,19.2,42.7,42.7s-19.2,42.7-42.7,42.7
		C300.8,189.931,282.7,170.731,282.7,147.231z"/>
</g>
<path style="fill:#F2F2F2;" d="M282.7,142.931c0,1.1,0,3.2,0,4.3c0,1.1,0,3.2,0,4.3h83.2c0-1.1,0-3.2,0-4.3c0-1.1,0-3.2,0-4.3H282.7
	z"/>
<path style="fill:#FFFFFF;" d="M263.5,194.131v72.5c12.8-7.5,21.3-20.3,21.3-36.3C283.7,214.431,275.2,200.531,263.5,194.131z"/>
<path style="fill:#CDD6E0;" d="M249.6,0.031H21.3c-11.7,0-21.3,9.6-21.3,21.3v469.3c0,11.7,9.6,21.3,21.3,21.3h228.3
	c11.7,0,21.3-9.6,21.3-21.3v-469.3C270.9,9.631,261.3,0.031,249.6,0.031z"/>
<g>
	<path style="fill:#54C0EB;" d="M193.1,240.031c-23.5,0-42.7-19.2-42.7-42.7s19.2-42.7,42.7-42.7s42.7,19.2,42.7,42.7
		S216.5,240.031,193.1,240.031z"/>
	<path style="fill:#54C0EB;" d="M193.1,356.331c-23.5,0-42.7-19.2-42.7-42.7s19.2-42.7,42.7-42.7s42.7,19.2,42.7,42.7
		C235.7,338.131,216.5,356.331,193.1,356.331z"/>
</g>
<path style="fill:#F2F2F2;" d="M163.2,110.931c-16-16-16-43.7,0-59.7s43.7-16,59.7,0s16,43.7,0,59.7S179.2,126.931,163.2,110.931z"
	/>
<path style="fill:#FFFFFF;" d="M160,106.731c1.1,1.1,2.1,2.1,3.2,3.2c1.1,1.1,2.1,2.1,3.2,3.2l58.7-58.7c0-1.1-1.1-2.1-2.1-3.2
	s-2.1-2.1-3.2-3.2L160,106.731z"/>
<path style="fill:#F2F2F2;" d="M162.7,227.531c-16.3-16.3-16.3-44.5,0-60.8s44.5-16.3,60.8,0s16.3,44.5,0,60.8
	C207.2,244.931,179,244.931,162.7,227.531z"/>
<path style="fill:#FFFFFF;" d="M160,224.031c1.1,1.1,2.1,2.1,3.2,3.2s2.1,2.1,3.2,3.2l58.7-58.7c-1.1-1.1-2.1-2.1-3.2-3.2
	c-1.1-1.1-2.1-2.1-3.2-3.2L160,224.031z"/>
<path style="fill:#F2F2F2;" d="M162.6,344.031c-16.3-16.3-16.3-44.6,0-60.9s44.6-16.3,60.9,0s16.3,44.6,0,60.9
	C207.1,360.331,178.9,360.331,162.6,344.031z"/>
<path style="fill:#FFFFFF;" d="M160,340.331c1.1,1.1,2.1,2.1,3.2,3.2s2.1,2.1,3.2,3.2l58.7-58.7c-1.1-1.1-2.1-2.1-3.2-3.2
	c-1.1-1.1-2.1-2.1-3.2-3.2L160,340.331z"/>
<path style="fill:#F2F2F2;" d="M44.8,110.931c-16-16-16-43.7,0-59.7s43.7-16,59.7,0s16,43.7,0,59.7
	C87.5,126.931,60.8,126.931,44.8,110.931z"/>
<path style="fill:#FFFFFF;" d="M41.6,106.731c1.1,1.1,2.1,2.1,3.2,3.2c1.1,1.1,2.1,2.1,3.2,3.2l58.7-58.7c0-1.1-1.1-2.1-2.1-3.2
	c-1.1-1.1-2.1-2.1-4.3-3.2L41.6,106.731z"/>
<path style="fill:#F2F2F2;" d="M44.8,227.231c-16-16-16-43.7,0-59.7s43.7-16,59.7,0s16,43.7,0,59.7
	C87.5,244.331,60.8,244.331,44.8,227.231z"/>
<path style="fill:#FFFFFF;" d="M41.6,224.031c1.1,1.1,2.1,2.1,3.2,3.2c1.1,1.1,2.1,2.1,3.2,3.2l58.7-58.7c-1.1-1.1-2.1-2.1-3.2-3.2
	c-1.1-1.1-2.1-2.1-3.2-3.2L41.6,224.031z"/>
<path style="fill:#F2F2F2;" d="M44.8,344.531c-16-16-16-43.7,0-59.7s43.7-16,59.7,0s16,43.7,0,59.7
	C87.5,360.531,60.8,360.531,44.8,344.531z"/>
<path style="fill:#FFFFFF;" d="M41.6,340.331c1.1,1.1,2.1,2.1,3.2,3.2c1.1,1.1,2.1,2.1,3.2,3.2l58.7-58.7c-1.1-1.1-2.1-2.1-3.2-3.2
	c-1.1-1.1-2.1-2.1-3.2-3.2L41.6,340.331z"/>
<path style="fill:#F2F2F2;" d="M163.2,460.831c-16-16-16-43.7,0-59.7s43.7-16,59.7,0s16,43.7,0,59.7
	C206.9,477.931,179.2,477.931,163.2,460.831z"/>
<path style="fill:#FFFFFF;" d="M160,457.631c1.1,1.1,2.1,2.1,3.2,3.2c1.1,1.1,2.1,2.1,3.2,3.2l58.7-58.7c-1.1-1.1-2.1-2.1-3.2-3.2
	c-1.1-1.1-2.1-2.1-3.2-3.2L160,457.631z"/>
<path style="fill:#F2F2F2;" d="M44.8,460.831c-16-16-16-43.7,0-59.7s43.7-16,59.7,0s16,43.7,0,59.7
	C87.5,477.931,60.8,477.931,44.8,460.831z"/>
<path style="fill:#FFFFFF;" d="M41.6,457.631c1.1,1.1,2.1,2.1,3.2,3.2c1.1,1.1,2.1,2.1,3.2,3.2l58.7-58.7c-1.1-1.1-2.1-2.1-3.2-3.2
	s-2.1-2.1-3.2-3.2L41.6,457.631z"/>
<g>
</g>
<g>
</g>
<g>
</g>
<g>
</g>
<g>
</g>
<g>
</g>
<g>
</g>
<g>
</g>
<g>
</g>
<g>
</g>
<g>
</g>
<g>
</g>
<g>
</g>
<g>
</g>
<g>
</g>
</svg>
